<?xml version="1.0" encoding="utf-8"?>
<svg version="1.1"
	 id="Layer_1" inkscape:version="0.48.0 r9654" sodipodi:docname="squid.svg" xmlns:cc="http://creativecommons.org/ns#" xmlns:dc="http://purl.org/dc/elements/1.1/" xmlns:inkscape="http://www.inkscape.org/namespaces/inkscape" xmlns:rdf="http://www.w3.org/1999/02/22-rdf-syntax-ns#" xmlns:sodipodi="http://sodipodi.sourceforge.net/DTD/sodipodi-0.dtd" xmlns:svg="http://www.w3.org/2000/svg"
	 xmlns="http://www.w3.org/2000/svg" xmlns:xlink="http://www.w3.org/1999/xlink" x="0px" y="0px" viewBox="0 0 8000 8000"
	 style="enable-background:new 0 0 8000 8000;" xml:space="preserve">
	<g>
		<path d="M0,0v8000h8000V0H0z M4068.9,4007.8c-2,3.9-10.8,7.1-22.9,8.4c-1.9,0.2-3.7,0.4-3.9,0.5c-0.9,0.3-6.5,18.1-6.6,19
			c-0.1,0.7-0.1,1.4-0.1,2.2c0,1.1,0.3,4.2,0.4,4.6c0,0.1,0.1,0.2,0.1,0.3c0,0.3,0.3,1.1,0.6,1.9l0.6,1.4l0,0
			c1.1,1.9,1.8,4.1,2.2,6.3c0.4,2.3,0.5,5.5,0.4,6.9s-1.3,3.8-1.6,4.3c-1.1,1.8-3.6,4.4-6,6.2c-1.6,1.2-1.9,1.3-2.2,1
			c-0.4-0.3-4.2-5-5.8-6.9c-0.6-0.7-2-2.6-2.4-3.6c-0.6-1.4-1.2-3.5-1.4-4.8c0-0.2-0.1,0.4-0.2,1.4c-0.6,6.7-2.4,11.5-5.5,14.6
			c-1.6,1.6-3.8,3-4.7,3c-1.2,0-3.6-1.8-5.1-3.7c-2-2.7-3.8-7.6-4.1-11.6c-0.2-1.9-0.3-1.6-0.7,1.2c-0.6,4.7-2.6,9.4-5.1,11.8
			c-0.5,0.4-1.4,1.1-2.1,1.6c-1.8,1.1-2.3,1-4.5-0.5l-0.8-0.6c0,0-1.5-1.5-2-2.4c-1.1-1.8-1.6-3.8-2.5-5.7c-0.8-1.6-1.6-3.3-1.8-5
			l-0.1-1.1c-0.1-0.7-0.2-1.6-0.2-2.2l-0.1-1l-0.5,1.8c-0.3,1-0.7,2.4-1,3.2c-1.3,3.2-4.3,7.2-7.1,9.5l-1.4,1.1l-1.7-1.2
			c-2-1.4-4.6-3.9-5.6-5.4c-1-1.4-1.9-3.3-2.2-4.7l-0.3-1.2l-0.3-1.5c-0.1-2.1,0.2-4.3,0.9-6.3c0.3-1,1.4-2.9,1.4-2.9s0.5-1,0.9-1.9
			c0.9-2,1-2.3,1.3-3.4c0-0.1,0.1-0.2,0.1-0.3c0.1-0.8,0.3-1.6,0.4-2.3c0.4-2.3,0.1-4.7-0.9-6.8c0,0,0,0,0,0c0,0,0,0,0,0
			c0,0-0.1,0-0.1,0.1c0,0,0.1-0.1,0.1-0.1c-0.1-0.2-0.4-1.3-0.7-2.6c-0.9-3.6-1.8-6.3-3.4-10.3c-0.8-2-1.4-3.6-1.5-3.6
			c0,0-1.4-0.2-3-0.4c-13.1-1.3-22.2-4.6-24.2-8.6c-0.7-1.4-0.8-4-0.2-6.5c1.7-7.7,8.3-19,19.4-33.1c16-20.4,37.9-41.7,46.9-45.7
			c2.7-1.2,4.4-0.9,7.9,1.2c10.3,6.2,30.2,26,44.8,44.7c10.8,13.7,17.3,24.9,19.2,32.6C4069.7,4003.4,4069.6,4006.5,4068.9,4007.8z"
			/>
		<path d="M4033.9,3983.9c-4.3-4.3-9.5-6.3-16.3-6.3c-5,0-8.3,0.8-13.2,3.1c-2.7,1.3-2.9,1.3-4.4,1.3c-1.5,0-1.8-0.1-4.2-1.2
			c-3.5-1.7-4-1.8-6.5-2.5c-3-0.8-8.4-0.9-11.4-0.4c-5.2,0.9-8.7,2.9-12.4,6.8c-1.9,2.1-3.5,4.5-4.5,6.9c-3.3,8-3.1,16.9,0.5,24.4
			c2.5,5.3,6.3,9.3,11.1,11.6c2.7,1.3,4.4,1.8,6.8,2c3.3,0.3,7.2-0.1,10.2-1c0.9-0.3,2.8-1.1,4.1-1.7c3.3-1.7,4.4-2,6.3-2
			c2,0,3.1,0.3,6.4,2c3.7,1.9,5.8,2.4,9.8,2.7c4.4,0.3,8-0.3,11.4-2c6.7-3.3,11.4-9.8,13.3-18.2c0.6-2.9,0.6-9.4-0.1-12.5
			C4039.5,3991.5,4037.2,3987.2,4033.9,3983.9z M4032.8,4014.4c-3.3,4.4-7.9,7.1-13.3,7.7c-5.4,0.6-10.7-1.2-15-5.3
			c-1.4-1.4-3.9-4.7-4.2-5.7c-0.2-0.6-0.4-0.6-0.8,0.2c-0.5,1.1-1.8,3.1-3.1,4.5c-2.5,2.7-6,4.9-9.4,5.7c-7.7,2-15.9-1.3-20.5-8.1
			c-6.6-9.8-4-23.7,5.6-30.2c5-3.3,11.7-4,17.2-1.8c4.1,1.7,8.3,5.4,10.1,9.2c0.3,0.6,0.5,1,0.6,1c0.1,0,0.4-0.5,0.7-1.1
			c2.1-3.7,4.9-6.5,8.4-8.3c5.5-2.8,11.9-2.7,17.3,0.2C4037.5,3988.5,4040.6,4004,4032.8,4014.4z"/>
		<path d="M4021.3,3984.9c-1.7-0.9-3.1-1.2-5.3-1.2c-2.5,0-4.3,0.5-6.4,1.9c-4,2.7-5.7,7-4.6,11.3c1,3.9,4.7,7.2,8.9,8
			c5.9,1.1,11.8-2.5,13.3-8.3c0.6-2.4,0.3-4.9-1.1-7.3C4024.9,3987.4,4023.5,3986.1,4021.3,3984.9z"/>
		<path d="M3989.1,3984.9c-1.7-0.9-3.1-1.2-5.3-1.2c-2.5,0-4.3,0.5-6.4,1.9c-4,2.7-5.7,7-4.6,11.3c1,3.9,4.7,7.2,8.9,8c0,0,0,0,0,0
			c5.9,1.1,11.8-2.5,13.3-8.3c0.6-2.4,0.3-4.9-1.1-7.3C3992.8,3987.4,3991.3,3986.1,3989.1,3984.9z"/>
	</g>
</svg>
